<mxfile host="Electron" agent="Mozilla/5.0 (X11; Linux x86_64) AppleWebKit/537.36 (KHTML, like Gecko) draw.io/24.7.17 Chrome/128.0.6613.36 Electron/32.0.1 Safari/537.36" version="24.7.17">
  <diagram name="Page-1" id="li09qqb5fwVE3tS7wrpL">
    <mxGraphModel dx="1114" dy="573" grid="1" gridSize="10" guides="1" tooltips="1" connect="1" arrows="1" fold="1" page="1" pageScale="1" pageWidth="850" pageHeight="1100" math="0" shadow="0">
      <root>
        <mxCell id="0" />
        <mxCell id="1" parent="0" />
        <mxCell id="YynYFaujQuoTjstU80i5-15" value="" style="shape=flexArrow;endArrow=classic;html=1;rounded=0;" edge="1" parent="1">
          <mxGeometry width="50" height="50" relative="1" as="geometry">
            <mxPoint x="440" y="253" as="sourcePoint" />
            <mxPoint x="530" y="253" as="targetPoint" />
          </mxGeometry>
        </mxCell>
        <mxCell id="YynYFaujQuoTjstU80i5-16" value="" style="group" vertex="1" connectable="0" parent="1">
          <mxGeometry y="14" width="400" height="519" as="geometry" />
        </mxCell>
        <mxCell id="YynYFaujQuoTjstU80i5-7" value="" style="group" vertex="1" connectable="0" parent="YynYFaujQuoTjstU80i5-16">
          <mxGeometry x="40" y="39" width="360" height="480" as="geometry" />
        </mxCell>
        <mxCell id="YynYFaujQuoTjstU80i5-1" value="" style="rounded=0;whiteSpace=wrap;html=1;" vertex="1" parent="YynYFaujQuoTjstU80i5-7">
          <mxGeometry width="360" height="480" as="geometry" />
        </mxCell>
        <mxCell id="YynYFaujQuoTjstU80i5-8" value="" style="group" vertex="1" connectable="0" parent="YynYFaujQuoTjstU80i5-7">
          <mxGeometry x="10" y="10" width="340" height="110" as="geometry" />
        </mxCell>
        <mxCell id="YynYFaujQuoTjstU80i5-5" value="" style="rounded=0;whiteSpace=wrap;html=1;align=center;" vertex="1" parent="YynYFaujQuoTjstU80i5-8">
          <mxGeometry width="340" height="110" as="geometry" />
        </mxCell>
        <mxCell id="YynYFaujQuoTjstU80i5-6" value="&lt;font style=&quot;font-size: 14px;&quot;&gt;Бонусы&lt;/font&gt;" style="rounded=0;whiteSpace=wrap;html=1;shadow=0;glass=0;strokeWidth=0;" vertex="1" parent="YynYFaujQuoTjstU80i5-8">
          <mxGeometry y="1" width="340" height="20" as="geometry" />
        </mxCell>
        <mxCell id="YynYFaujQuoTjstU80i5-3" value="&lt;font style=&quot;font-size: 14px;&quot;&gt;Кэшбек&lt;/font&gt;&lt;div&gt;&lt;font style=&quot;font-size: 14px;&quot;&gt;&lt;font size=&quot;3&quot;&gt;123&amp;nbsp;&lt;/font&gt;&lt;span style=&quot;font-size: 12px; background-color: initial;&quot;&gt;&lt;font size=&quot;3&quot;&gt;₽&lt;/font&gt;&lt;/span&gt;&lt;br&gt;Выплатим ДД ММ&lt;/font&gt;&lt;/div&gt;" style="rounded=0;whiteSpace=wrap;html=1;" vertex="1" parent="YynYFaujQuoTjstU80i5-8">
          <mxGeometry x="13" y="30" width="140" height="60" as="geometry" />
        </mxCell>
        <mxCell id="YynYFaujQuoTjstU80i5-4" value="&lt;font style=&quot;font-size: 14px;&quot;&gt;Кэшбэк Самолёт&lt;/font&gt;&lt;div&gt;&lt;font size=&quot;3&quot;&gt;1234567&amp;nbsp;&lt;/font&gt;&lt;span style=&quot;background-color: initial;&quot;&gt;&lt;font style=&quot;&quot; size=&quot;3&quot;&gt;₽&lt;/font&gt;&lt;/span&gt;&lt;/div&gt;&lt;div&gt;&lt;font size=&quot;3&quot;&gt;5% на квартиру&lt;/font&gt;&lt;/div&gt;" style="rounded=0;whiteSpace=wrap;html=1;" vertex="1" parent="YynYFaujQuoTjstU80i5-8">
          <mxGeometry x="188" y="30" width="140" height="60" as="geometry" />
        </mxCell>
        <mxCell id="YynYFaujQuoTjstU80i5-9" value="" style="group" vertex="1" connectable="0" parent="YynYFaujQuoTjstU80i5-16">
          <mxGeometry x="51" y="189" width="340" height="110" as="geometry" />
        </mxCell>
        <mxCell id="YynYFaujQuoTjstU80i5-10" value="" style="rounded=0;whiteSpace=wrap;html=1;align=center;" vertex="1" parent="YynYFaujQuoTjstU80i5-9">
          <mxGeometry width="340" height="110" as="geometry" />
        </mxCell>
        <mxCell id="YynYFaujQuoTjstU80i5-11" value="&lt;span style=&quot;font-size: 14px;&quot;&gt;Кэшбэк и розыгрыши&lt;/span&gt;" style="rounded=0;whiteSpace=wrap;html=1;shadow=0;glass=0;strokeWidth=0;" vertex="1" parent="YynYFaujQuoTjstU80i5-9">
          <mxGeometry y="1" width="340" height="20" as="geometry" />
        </mxCell>
        <mxCell id="YynYFaujQuoTjstU80i5-12" value="&lt;span style=&quot;font-size: 14px;&quot;&gt;В октябре&lt;/span&gt;&lt;div&gt;&lt;span style=&quot;font-size: 14px;&quot;&gt;...&lt;/span&gt;&lt;/div&gt;" style="rounded=0;whiteSpace=wrap;html=1;" vertex="1" parent="YynYFaujQuoTjstU80i5-9">
          <mxGeometry x="13" y="30" width="140" height="60" as="geometry" />
        </mxCell>
        <mxCell id="YynYFaujQuoTjstU80i5-13" value="&lt;span style=&quot;font-size: 14px;&quot;&gt;Розыгрыши призов&lt;/span&gt;" style="rounded=0;whiteSpace=wrap;html=1;" vertex="1" parent="YynYFaujQuoTjstU80i5-9">
          <mxGeometry x="188" y="30" width="140" height="60" as="geometry" />
        </mxCell>
        <mxCell id="YynYFaujQuoTjstU80i5-14" value="&lt;font size=&quot;3&quot;&gt;1&lt;/font&gt;" style="ellipse;whiteSpace=wrap;html=1;aspect=fixed;" vertex="1" parent="YynYFaujQuoTjstU80i5-16">
          <mxGeometry width="40" height="40" as="geometry" />
        </mxCell>
        <mxCell id="YynYFaujQuoTjstU80i5-48" value="&lt;font style=&quot;font-size: 18px;&quot;&gt;Как сейчас&lt;/font&gt;" style="text;html=1;align=center;verticalAlign=middle;resizable=0;points=[];autosize=1;strokeColor=none;fillColor=none;" vertex="1" parent="YynYFaujQuoTjstU80i5-16">
          <mxGeometry x="40" y="-1" width="110" height="40" as="geometry" />
        </mxCell>
        <mxCell id="YynYFaujQuoTjstU80i5-17" value="" style="group" vertex="1" connectable="0" parent="1">
          <mxGeometry x="530" y="13" width="400" height="519" as="geometry" />
        </mxCell>
        <mxCell id="YynYFaujQuoTjstU80i5-18" value="" style="group" vertex="1" connectable="0" parent="YynYFaujQuoTjstU80i5-17">
          <mxGeometry x="40" y="39" width="360" height="480" as="geometry" />
        </mxCell>
        <mxCell id="YynYFaujQuoTjstU80i5-19" value="" style="rounded=0;whiteSpace=wrap;html=1;" vertex="1" parent="YynYFaujQuoTjstU80i5-18">
          <mxGeometry width="360" height="480" as="geometry" />
        </mxCell>
        <mxCell id="YynYFaujQuoTjstU80i5-20" value="" style="group" vertex="1" connectable="0" parent="YynYFaujQuoTjstU80i5-18">
          <mxGeometry x="10" y="10" width="340" height="430" as="geometry" />
        </mxCell>
        <mxCell id="YynYFaujQuoTjstU80i5-21" value="..." style="rounded=0;whiteSpace=wrap;html=1;align=center;strokeWidth=0;" vertex="1" parent="YynYFaujQuoTjstU80i5-20">
          <mxGeometry width="340" height="430" as="geometry" />
        </mxCell>
        <mxCell id="YynYFaujQuoTjstU80i5-22" value="&lt;font style=&quot;font-size: 14px;&quot;&gt;Бонусы&lt;/font&gt;" style="rounded=0;whiteSpace=wrap;html=1;shadow=0;glass=0;strokeWidth=0;" vertex="1" parent="YynYFaujQuoTjstU80i5-20">
          <mxGeometry y="1" width="340" height="20" as="geometry" />
        </mxCell>
        <mxCell id="YynYFaujQuoTjstU80i5-34" value="" style="group" vertex="1" connectable="0" parent="YynYFaujQuoTjstU80i5-20">
          <mxGeometry x="13" y="30" width="317" height="60" as="geometry" />
        </mxCell>
        <mxCell id="YynYFaujQuoTjstU80i5-23" value="1% на все покупки" style="rounded=0;whiteSpace=wrap;html=1;" vertex="1" parent="YynYFaujQuoTjstU80i5-34">
          <mxGeometry width="317" height="60" as="geometry" />
        </mxCell>
        <mxCell id="YynYFaujQuoTjstU80i5-33" value="&lt;font size=&quot;3&quot;&gt;К1&lt;/font&gt;" style="rounded=1;whiteSpace=wrap;html=1;" vertex="1" parent="YynYFaujQuoTjstU80i5-34">
          <mxGeometry x="2" width="67" height="60" as="geometry" />
        </mxCell>
        <mxCell id="YynYFaujQuoTjstU80i5-30" value="&lt;font size=&quot;3&quot;&gt;2&lt;/font&gt;" style="ellipse;whiteSpace=wrap;html=1;aspect=fixed;" vertex="1" parent="YynYFaujQuoTjstU80i5-17">
          <mxGeometry width="40" height="40" as="geometry" />
        </mxCell>
        <mxCell id="YynYFaujQuoTjstU80i5-49" value="&lt;font style=&quot;font-size: 18px;&quot;&gt;Как сейчас - выбранные (=подтверждённые) категории&lt;/font&gt;" style="text;html=1;align=center;verticalAlign=middle;resizable=0;points=[];autosize=1;strokeColor=none;fillColor=none;" vertex="1" parent="YynYFaujQuoTjstU80i5-17">
          <mxGeometry x="38" y="-3" width="480" height="40" as="geometry" />
        </mxCell>
        <mxCell id="YynYFaujQuoTjstU80i5-35" value="" style="group" vertex="1" connectable="0" parent="1">
          <mxGeometry x="594" y="163" width="317" height="60" as="geometry" />
        </mxCell>
        <mxCell id="YynYFaujQuoTjstU80i5-36" value="25% на выставки и музеи" style="rounded=0;whiteSpace=wrap;html=1;" vertex="1" parent="YynYFaujQuoTjstU80i5-35">
          <mxGeometry width="317" height="60" as="geometry" />
        </mxCell>
        <mxCell id="YynYFaujQuoTjstU80i5-37" value="&lt;font size=&quot;3&quot;&gt;К2&lt;/font&gt;" style="rounded=1;whiteSpace=wrap;html=1;" vertex="1" parent="YynYFaujQuoTjstU80i5-35">
          <mxGeometry x="2" width="67" height="60" as="geometry" />
        </mxCell>
        <mxCell id="YynYFaujQuoTjstU80i5-43" value="" style="edgeStyle=orthogonalEdgeStyle;rounded=0;orthogonalLoop=1;jettySize=auto;html=1;entryX=0;entryY=0.5;entryDx=0;entryDy=0;strokeColor=#FF0000;" edge="1" parent="1" source="YynYFaujQuoTjstU80i5-12" target="YynYFaujQuoTjstU80i5-30">
          <mxGeometry relative="1" as="geometry">
            <mxPoint x="490" y="63" as="targetPoint" />
            <Array as="points">
              <mxPoint x="134" y="193" />
              <mxPoint x="430" y="193" />
              <mxPoint x="430" y="33" />
            </Array>
          </mxGeometry>
        </mxCell>
        <mxCell id="YynYFaujQuoTjstU80i5-44" value="Жмак&lt;div&gt;на&lt;/div&gt;&lt;div&gt;область&lt;/div&gt;&lt;div&gt;кэшбэка&lt;/div&gt;&lt;div&gt;(&quot;В октябре&quot;)&lt;/div&gt;" style="rounded=1;whiteSpace=wrap;html=1;" vertex="1" parent="1">
          <mxGeometry x="440" y="283" width="90" height="110" as="geometry" />
        </mxCell>
        <mxCell id="YynYFaujQuoTjstU80i5-45" value="" style="shape=flexArrow;endArrow=classic;html=1;rounded=0;" edge="1" parent="1">
          <mxGeometry width="50" height="50" relative="1" as="geometry">
            <mxPoint x="200" y="562" as="sourcePoint" />
            <mxPoint x="200" y="682" as="targetPoint" />
          </mxGeometry>
        </mxCell>
        <mxCell id="YynYFaujQuoTjstU80i5-47" value="&lt;font style=&quot;font-size: 14px;&quot;&gt;Как хотим&lt;/font&gt;" style="rounded=1;whiteSpace=wrap;html=1;" vertex="1" parent="1">
          <mxGeometry x="270" y="560" width="140" height="120" as="geometry" />
        </mxCell>
        <mxCell id="YynYFaujQuoTjstU80i5-50" value="" style="rounded=0;whiteSpace=wrap;html=1;" vertex="1" parent="1">
          <mxGeometry x="42" y="720" width="360" height="480" as="geometry" />
        </mxCell>
        <mxCell id="YynYFaujQuoTjstU80i5-51" value="" style="group" vertex="1" connectable="0" parent="1">
          <mxGeometry x="52" y="730" width="340" height="110" as="geometry" />
        </mxCell>
        <mxCell id="YynYFaujQuoTjstU80i5-52" value="" style="rounded=0;whiteSpace=wrap;html=1;align=center;" vertex="1" parent="YynYFaujQuoTjstU80i5-51">
          <mxGeometry width="340" height="110" as="geometry" />
        </mxCell>
        <mxCell id="YynYFaujQuoTjstU80i5-53" value="&lt;font style=&quot;font-size: 14px;&quot;&gt;Бонусы&lt;/font&gt;" style="rounded=0;whiteSpace=wrap;html=1;shadow=0;glass=0;strokeWidth=0;" vertex="1" parent="YynYFaujQuoTjstU80i5-51">
          <mxGeometry y="1" width="340" height="20" as="geometry" />
        </mxCell>
        <mxCell id="YynYFaujQuoTjstU80i5-54" value="&lt;font style=&quot;font-size: 14px;&quot;&gt;Кэшбек&lt;/font&gt;&lt;div&gt;&lt;font style=&quot;font-size: 14px;&quot;&gt;&lt;font size=&quot;3&quot;&gt;123&amp;nbsp;&lt;/font&gt;&lt;span style=&quot;font-size: 12px; background-color: initial;&quot;&gt;&lt;font size=&quot;3&quot;&gt;₽&lt;/font&gt;&lt;/span&gt;&lt;br&gt;Выплатим ДД ММ&lt;/font&gt;&lt;/div&gt;" style="rounded=0;whiteSpace=wrap;html=1;" vertex="1" parent="YynYFaujQuoTjstU80i5-51">
          <mxGeometry x="13" y="30" width="140" height="60" as="geometry" />
        </mxCell>
        <mxCell id="YynYFaujQuoTjstU80i5-55" value="&lt;font style=&quot;font-size: 14px;&quot;&gt;Кэшбэк Самолёт&lt;/font&gt;&lt;div&gt;&lt;font size=&quot;3&quot;&gt;1234567&amp;nbsp;&lt;/font&gt;&lt;span style=&quot;background-color: initial;&quot;&gt;&lt;font style=&quot;&quot; size=&quot;3&quot;&gt;₽&lt;/font&gt;&lt;/span&gt;&lt;/div&gt;&lt;div&gt;&lt;font size=&quot;3&quot;&gt;5% на квартиру&lt;/font&gt;&lt;/div&gt;" style="rounded=0;whiteSpace=wrap;html=1;" vertex="1" parent="YynYFaujQuoTjstU80i5-51">
          <mxGeometry x="188" y="30" width="140" height="60" as="geometry" />
        </mxCell>
        <mxCell id="YynYFaujQuoTjstU80i5-56" value="" style="group" vertex="1" connectable="0" parent="1">
          <mxGeometry x="53" y="870" width="340" height="110" as="geometry" />
        </mxCell>
        <mxCell id="YynYFaujQuoTjstU80i5-57" value="" style="rounded=0;whiteSpace=wrap;html=1;align=center;" vertex="1" parent="YynYFaujQuoTjstU80i5-56">
          <mxGeometry width="340" height="110" as="geometry" />
        </mxCell>
        <mxCell id="YynYFaujQuoTjstU80i5-58" value="&lt;span style=&quot;font-size: 14px;&quot;&gt;Категории кэшбэка&lt;/span&gt;" style="rounded=0;whiteSpace=wrap;html=1;shadow=0;glass=0;strokeWidth=0;" vertex="1" parent="YynYFaujQuoTjstU80i5-56">
          <mxGeometry y="1" width="340" height="20" as="geometry" />
        </mxCell>
        <mxCell id="YynYFaujQuoTjstU80i5-59" value="&lt;span style=&quot;font-size: 14px;&quot;&gt;В октябре&lt;/span&gt;&lt;div&gt;&lt;span style=&quot;font-size: 14px;&quot;&gt;...&lt;/span&gt;&lt;/div&gt;" style="rounded=0;whiteSpace=wrap;html=1;" vertex="1" parent="YynYFaujQuoTjstU80i5-56">
          <mxGeometry x="13" y="30" width="140" height="60" as="geometry" />
        </mxCell>
        <mxCell id="YynYFaujQuoTjstU80i5-60" value="&lt;span style=&quot;font-size: 14px;&quot;&gt;В ноябре&lt;/span&gt;&lt;div&gt;&lt;span style=&quot;font-size: 14px;&quot;&gt;...&lt;/span&gt;&lt;/div&gt;" style="rounded=0;whiteSpace=wrap;html=1;" vertex="1" parent="YynYFaujQuoTjstU80i5-56">
          <mxGeometry x="188" y="30" width="140" height="60" as="geometry" />
        </mxCell>
        <mxCell id="YynYFaujQuoTjstU80i5-63" value="" style="group" vertex="1" connectable="0" parent="1">
          <mxGeometry x="53" y="992" width="340" height="110" as="geometry" />
        </mxCell>
        <mxCell id="YynYFaujQuoTjstU80i5-64" value="" style="rounded=0;whiteSpace=wrap;html=1;align=center;dashed=1;" vertex="1" parent="YynYFaujQuoTjstU80i5-63">
          <mxGeometry width="340" height="80" as="geometry" />
        </mxCell>
        <mxCell id="YynYFaujQuoTjstU80i5-65" value="&lt;span style=&quot;font-size: 14px;&quot;&gt;Розыгрыши&lt;/span&gt;" style="rounded=0;whiteSpace=wrap;html=1;shadow=0;glass=0;strokeWidth=0;" vertex="1" parent="YynYFaujQuoTjstU80i5-63">
          <mxGeometry y="1" width="340" height="20" as="geometry" />
        </mxCell>
        <mxCell id="YynYFaujQuoTjstU80i5-68" value="&lt;font style=&quot;font-size: 14px;&quot;&gt;Эта область будет появляться&lt;/font&gt;&lt;div&gt;&lt;font style=&quot;font-size: 14px;&quot;&gt;когда будет время розыгрышей&lt;/font&gt;&lt;/div&gt;" style="rounded=0;whiteSpace=wrap;html=1;align=center;dashed=1;dashPattern=8 8;" vertex="1" parent="1">
          <mxGeometry x="487" y="1167" width="203" height="80" as="geometry" />
        </mxCell>
        <mxCell id="YynYFaujQuoTjstU80i5-69" value="" style="edgeStyle=orthogonalEdgeStyle;rounded=0;orthogonalLoop=1;jettySize=auto;html=1;entryX=0;entryY=0.5;entryDx=0;entryDy=0;" edge="1" parent="1" source="YynYFaujQuoTjstU80i5-64" target="YynYFaujQuoTjstU80i5-68">
          <mxGeometry relative="1" as="geometry" />
        </mxCell>
        <mxCell id="YynYFaujQuoTjstU80i5-90" style="edgeStyle=orthogonalEdgeStyle;rounded=0;orthogonalLoop=1;jettySize=auto;html=1;entryX=1;entryY=0.5;entryDx=0;entryDy=0;" edge="1" parent="1" source="YynYFaujQuoTjstU80i5-70" target="YynYFaujQuoTjstU80i5-60">
          <mxGeometry relative="1" as="geometry">
            <Array as="points">
              <mxPoint x="590" y="930" />
            </Array>
          </mxGeometry>
        </mxCell>
        <mxCell id="YynYFaujQuoTjstU80i5-70" value="&lt;font style=&quot;font-size: 14px;&quot;&gt;Выбор категорий на следующий месяц&lt;/font&gt;" style="rounded=0;whiteSpace=wrap;html=1;dashed=1;dashPattern=8 8;" vertex="1" parent="1">
          <mxGeometry x="484" y="1075" width="206" height="60" as="geometry" />
        </mxCell>
        <mxCell id="YynYFaujQuoTjstU80i5-72" value="" style="shape=flexArrow;endArrow=classic;html=1;rounded=0;" edge="1" parent="1">
          <mxGeometry width="50" height="50" relative="1" as="geometry">
            <mxPoint x="535" y="740" as="sourcePoint" />
            <mxPoint x="625" y="740" as="targetPoint" />
          </mxGeometry>
        </mxCell>
        <mxCell id="YynYFaujQuoTjstU80i5-73" value="Жмак&lt;div&gt;на&lt;/div&gt;&lt;div&gt;область&lt;/div&gt;&lt;div&gt;кэшбэка&lt;/div&gt;&lt;div&gt;(&quot;В октябре&quot;)&lt;/div&gt;" style="rounded=1;whiteSpace=wrap;html=1;" vertex="1" parent="1">
          <mxGeometry x="535" y="770" width="90" height="110" as="geometry" />
        </mxCell>
        <mxCell id="YynYFaujQuoTjstU80i5-75" value="&lt;font size=&quot;3&quot;&gt;1&lt;/font&gt;" style="ellipse;whiteSpace=wrap;html=1;aspect=fixed;" vertex="1" parent="1">
          <mxGeometry x="6" y="677" width="40" height="40" as="geometry" />
        </mxCell>
        <mxCell id="YynYFaujQuoTjstU80i5-76" value="&lt;font style=&quot;font-size: 18px;&quot;&gt;Как хотим&lt;/font&gt;" style="text;html=1;align=center;verticalAlign=middle;resizable=0;points=[];autosize=1;strokeColor=none;fillColor=none;" vertex="1" parent="1">
          <mxGeometry x="46" y="676" width="110" height="40" as="geometry" />
        </mxCell>
        <mxCell id="YynYFaujQuoTjstU80i5-77" value="" style="group" vertex="1" connectable="0" parent="1">
          <mxGeometry x="846" y="717" width="360" height="480" as="geometry" />
        </mxCell>
        <mxCell id="YynYFaujQuoTjstU80i5-78" value="" style="rounded=0;whiteSpace=wrap;html=1;" vertex="1" parent="YynYFaujQuoTjstU80i5-77">
          <mxGeometry x="-96" y="1" width="360" height="480" as="geometry" />
        </mxCell>
        <mxCell id="YynYFaujQuoTjstU80i5-79" value="" style="group" vertex="1" connectable="0" parent="YynYFaujQuoTjstU80i5-77">
          <mxGeometry x="-86" y="11" width="340" height="430" as="geometry" />
        </mxCell>
        <mxCell id="YynYFaujQuoTjstU80i5-80" value="..." style="rounded=0;whiteSpace=wrap;html=1;align=center;strokeWidth=0;" vertex="1" parent="YynYFaujQuoTjstU80i5-79">
          <mxGeometry width="340" height="430" as="geometry" />
        </mxCell>
        <mxCell id="YynYFaujQuoTjstU80i5-81" value="&lt;font style=&quot;font-size: 14px;&quot;&gt;Бонусы&lt;/font&gt;" style="rounded=0;whiteSpace=wrap;html=1;shadow=0;glass=0;strokeWidth=0;" vertex="1" parent="YynYFaujQuoTjstU80i5-79">
          <mxGeometry y="1" width="340" height="20" as="geometry" />
        </mxCell>
        <mxCell id="YynYFaujQuoTjstU80i5-82" value="" style="group" vertex="1" connectable="0" parent="YynYFaujQuoTjstU80i5-79">
          <mxGeometry x="13" y="30" width="317" height="70" as="geometry" />
        </mxCell>
        <mxCell id="YynYFaujQuoTjstU80i5-83" value="1% на все покупки" style="rounded=0;whiteSpace=wrap;html=1;" vertex="1" parent="YynYFaujQuoTjstU80i5-82">
          <mxGeometry width="317" height="60" as="geometry" />
        </mxCell>
        <mxCell id="YynYFaujQuoTjstU80i5-84" value="&lt;font size=&quot;3&quot;&gt;К1&lt;/font&gt;" style="rounded=1;whiteSpace=wrap;html=1;" vertex="1" parent="YynYFaujQuoTjstU80i5-82">
          <mxGeometry x="2" width="67" height="60" as="geometry" />
        </mxCell>
        <mxCell id="YynYFaujQuoTjstU80i5-91" value="" style="ellipse;whiteSpace=wrap;html=1;aspect=fixed;fillColor=#008a00;fontColor=#ffffff;strokeColor=#005700;" vertex="1" parent="YynYFaujQuoTjstU80i5-82">
          <mxGeometry x="270" y="10" width="42" height="42" as="geometry" />
        </mxCell>
        <mxCell id="YynYFaujQuoTjstU80i5-95" value="" style="verticalLabelPosition=bottom;verticalAlign=top;html=1;shape=mxgraph.basic.tick" vertex="1" parent="YynYFaujQuoTjstU80i5-82">
          <mxGeometry x="281" y="16" width="20" height="30" as="geometry" />
        </mxCell>
        <mxCell id="YynYFaujQuoTjstU80i5-85" value="&lt;font size=&quot;3&quot;&gt;2&lt;/font&gt;" style="ellipse;whiteSpace=wrap;html=1;aspect=fixed;" vertex="1" parent="1">
          <mxGeometry x="710" y="679" width="40" height="40" as="geometry" />
        </mxCell>
        <mxCell id="YynYFaujQuoTjstU80i5-86" value="&lt;font style=&quot;font-size: 18px;&quot;&gt;Как хотим - выбираем категории в следующем месяце&lt;/font&gt;" style="text;html=1;align=center;verticalAlign=middle;resizable=0;points=[];autosize=1;strokeColor=none;fillColor=none;" vertex="1" parent="1">
          <mxGeometry x="745" y="676" width="480" height="40" as="geometry" />
        </mxCell>
        <mxCell id="YynYFaujQuoTjstU80i5-87" value="" style="group" vertex="1" connectable="0" parent="1">
          <mxGeometry x="774" y="829" width="317" height="60" as="geometry" />
        </mxCell>
        <mxCell id="YynYFaujQuoTjstU80i5-88" value="25% на выставки и музеи" style="rounded=0;whiteSpace=wrap;html=1;" vertex="1" parent="YynYFaujQuoTjstU80i5-87">
          <mxGeometry width="317" height="60" as="geometry" />
        </mxCell>
        <mxCell id="YynYFaujQuoTjstU80i5-89" value="&lt;font size=&quot;3&quot;&gt;К2&lt;/font&gt;" style="rounded=1;whiteSpace=wrap;html=1;" vertex="1" parent="YynYFaujQuoTjstU80i5-87">
          <mxGeometry x="2" width="67" height="60" as="geometry" />
        </mxCell>
        <mxCell id="YynYFaujQuoTjstU80i5-92" value="" style="ellipse;whiteSpace=wrap;html=1;aspect=fixed;" vertex="1" parent="1">
          <mxGeometry x="1043" y="836" width="42" height="42" as="geometry" />
        </mxCell>
        <mxCell id="YynYFaujQuoTjstU80i5-93" value="Жмак на кружок&amp;nbsp;&lt;span style=&quot;background-color: initial;&quot;&gt;появляется галочка и область закрашивается зелёным&amp;nbsp;&lt;/span&gt;" style="whiteSpace=wrap;html=1;dashed=1;dashPattern=8 8;" vertex="1" parent="1">
          <mxGeometry x="1213" y="744" width="150" height="91" as="geometry" />
        </mxCell>
        <mxCell id="YynYFaujQuoTjstU80i5-94" value="" style="edgeStyle=orthogonalEdgeStyle;rounded=0;orthogonalLoop=1;jettySize=auto;html=1;" edge="1" parent="1" source="YynYFaujQuoTjstU80i5-91" target="YynYFaujQuoTjstU80i5-93">
          <mxGeometry relative="1" as="geometry" />
        </mxCell>
      </root>
    </mxGraphModel>
  </diagram>
</mxfile>
